<svg xmlns="http://www.w3.org/2000/svg" viewBox="0 0 314.49 200.25"><title>circuit-Abu_Dhabi</title><path fill="#ffffff" d="M153.87.75c-82.4.83-81,.73-86.34,6a11,11,0,0,0-3.2,6c-.94,6-1.67,7-9.21,12.66-17.63,13.19-26.21,29-40.81,75.29-8.81,28-9.79,32.81-13.94,69.12-1.7,14.92,2.5,24.1,11,24.12,1.16,0,4.12,1.3,6.59,2.88,7.65,4.93,17,4.55,28.3-1.18,15.53-7.83,15.92-12.94,2.8-36.66-14.86-26.87-16-37.66-5.16-48.52,6.36-6.36,9.21-6.24,12.59.51,4,7.93,8.61,10.27,17.53,8.84,11.37-1.82,22.23-9.42,22.41-15.69.26-9.2-.77-12.3-10.63-32.05C81.55,63.48,78,55.57,78,54.49,78,50.15,92.72,35.3,95.36,37c2.82,1.78,22.19,38.39,29.72,56.17,16.32,38.54,21.43,40.55,51.78,20.37,20.91-13.9,21.82-15.3,22.77-34.79l.55-11.48,2.69-2.69,2.7-2.69,13.52-.54c16.07-.63,19-1.36,41.29-10.38,21.37-8.63,22.56-9.39,27.94-17.83,1.71-2.68,2.29-3,7.1-3.5,13.44-1.49,20.36-8.08,18.88-18C312.41-.94,313.54-.86,153.87.75M301.06,11.57c5.88,2.82,1.51,7.21-7.27,7.32-7.53.09-11.91,2.64-14.53,8.43-1.4,3.12-2.33,3.71-17.81,11.26-21.81,10.64-23.38,11.12-40.92,12.49-26,2-31.22,6-31,23.7.24,16.57-1.5,20-13.58,26.66a103.28,103.28,0,0,0-10.26,6.48c-14,10.66-16.94,10.43-22.37-1.71-1.27-2.85-6-12.49-10.61-21.43s-12.47-24.5-17.56-34.58C103,26,102,24.79,95.11,24.78c-4.94,0-7.62,1.89-17.72,12.55-12.61,13.33-13.31,16.23-6.8,28.41,18.07,33.79,18.74,38.27,6.35,42-7.91,2.35-10.09,1.41-13.79-6-6.69-13.35-28-6.38-33.37,10.9-5.09,16.48-4.21,23.58,5.11,41.25,15.73,29.83,15.43,28.29,6.45,32.79-8,4-15.21,4.07-19.74.26a14.12,14.12,0,0,0-5.52-2.6c-4.77-.9-5.54-2.16-5.54-9,0-21.13,6.41-51,18.71-87.08,11.52-33.84,19.19-46.14,35.2-56.47,7.17-4.63,8.84-6.77,9.8-12.56,1.26-7.57-5.7-7.12,132.54-8.55,81.19-.83,90.85-.74,94.27.9"/></svg>