<svg viewBox="0 0 400.04 352.22" xmlns="http://www.w3.org/2000/svg">
<path fill="#ffffff" d="m385.8 1.43c-3.001 1.906-5.918 4.294-21.744 17.805-74.423 63.536-89.095 73.577-125.06 85.592-22.651 7.565-59.838 10.937-87.594 7.942-11.881-1.282-29.932-3.753-38.227-5.232-19.879-3.546-22.522-5.033-27.092-15.245-7.785-17.392-15.399-24.013-24.483-21.291-4.725 1.415-5.632 2.985-19.968 34.569-5.562 12.253-14.554 31.962-19.982 43.797-16.866 36.77-17.798 39.87-20.643 68.649-2.205 22.298-3.145 20.407 21.281 42.812 6.545 6.003 28.646 27.53 49.114 47.838 43.988 43.644 44.119 43.75 53.637 43.733 9.291-0.017 14.152-3.15 22.748-14.664 16.06-21.51 14.743-28.281-8.536-43.906-8.084-5.425-11.138-6.522-20.254-7.273-10.512-0.866-12.555-2.224-21.669-14.404-7.551-10.09-8.951-14.513-5.812-18.368 3.077-3.778 7.819-2.4 23.431 6.805 3.759 2.216 13.288 7.842 21.176 12.501 29.034 17.15 34.96 19.321 45.081 16.516 9.907-2.745 10.768-3.647 40.128-42.011 38.471-50.271 39.068-51.143 41.491-60.618 2.839-11.098 0.559-17.417-9.062-25.12-11.258-9.013-19.512-23.619-14.78-26.152 1.707-0.914 32.839-7.9 51.915-11.65 26.859-5.28 29.483-7.025 48.371-32.16 5.44-7.238 19.093-25.216 30.342-39.95 28.131-36.849 30.401-40.155 30.401-44.276 0-5.705-8.894-9.612-14.205-6.239m5.412 7.425c0.591 1.54-0.885 3.58-32.772 45.323-9.893 12.949-21.731 28.557-26.308 34.683-13.455 18.011-17.236 21.333-27.57 24.23-4.57 1.281-6.561 1.725-28.608 6.378-45.262 9.552-45.885 9.782-45.757 16.897 0.191 10.681 6.732 21.728 18.321 30.946 7.083 5.634 7.438 6.239 7.431 12.688-0.01 10.078 0.621 9.084-37.139 58.481-30.002 39.247-31.533 41.014-37.442 43.193-9.242 3.408-13.057 1.83-53.009-21.918-29.54-17.56-35.211-19.13-41.99-11.627-6.767 7.491-5.496 14.445 5.298 28.983 10.223 13.769 13.091 15.625 25.926 16.781 8.992 0.809 11.526 1.835 20.64 8.352 15.92 11.385 16.175 14.137 2.939 31.665-6.503 8.612-8.671 10.231-14.382 10.744-7.693 0.691-8.232 0.258-44.76-36.022-38.87-38.606-47.378-46.891-59.747-58.179-15.842-14.46-15.195-13.139-13.937-28.451 2.572-31.297 2.716-31.762 24.422-78.964 6.403-13.924 15.102-32.949 19.331-42.279 9.188-20.272 10.018-21.857 11.759-22.467 4.223-1.48 8.519 3.039 14.353 15.095 8.185 16.917 11.375 18.545 46.104 23.53 58.995 8.468 95.747 5.121 136.93-12.467 23.794-10.163 44.803-25.684 108.13-79.881 19.838-16.978 21.027-17.833 21.84-15.714" />
</svg>
