<svg xmlns="http://www.w3.org/2000/svg" viewBox="0 0 305.22 199.85"><title>circuit-Singapore</title><path fill="#ffffff" d="M255.14.8c-12.79,5.8-13.69,22.45-2.5,46.35,7.45,15.93,9,23.32,5.62,27.46-1.62,2-23.28,3-63.12,2.92-26.37-.06-28.6-.79-62.73-20.61C109.57,43.66,104.31,41.82,98.23,45c-4.36,2.26-5.77,4.38-12.64,19-6.63,14.1-8.23,14.38-20,3.53C45.64,49.17,44.29,49.89,20.36,91.75c-24.27,42.46-25.44,49-10.9,60.8,6.16,5,8.6,9.32,8.6,15.22,0,5.38,1.77,7.61,11.56,14.52a133.77,133.77,0,0,1,12.35,10c14.9,14.19,23.31,8.46,25.75-17.58C71.17,138,74.15,122,79.79,110.06c4.51-9.53,6.38-9.5,21.19.39,14.09,9.41,22.78,13.37,32.08,14.61,5.78.77,6.29,1.21,7.94,6.87,2.79,9.59,7,11.39,27.06,11.42,19.84,0,23.27-1.49,26.22-11.64,1.43-4.92,3.19-6.34,7.16-5.77,1.12.17,5.18.75,9,1.29,7.06,1,10.09,2.61,10.09,5.33,0,.69,1.36,2.76,3,4.59,4.61,5.11,7.54,5.62,36.34,6.27,29,.65,28.9.67,36.88-8.14,9.13-10.09,9.94-13.67,6.66-29.38-1.15-5.5-4.72-25.56-7.92-44.58-8.39-49.74-9.61-52.79-21.83-54.54a14,14,0,0,1-7.37-3.43c-1.89-1.58-3.87-2.87-4.4-2.88a15.64,15.64,0,0,1-2.63-.4,8,8,0,0,0-4.17.73m8.23,13.79A39.8,39.8,0,0,0,271.66,18c6.24,1.57,6.41,2.21,15.16,55,2.08,12.61,4.72,26.79,5.85,31.53,3.47,14.53,2.17,19.68-6.67,26.43l-3,2.28-21.85-.17c-27.08-.22-27.14-.23-29.51-5.23-3.35-7-9.16-9.76-25.28-11.84-13.32-1.73-17.49.21-21,9.75-2.61,7.16-3.39,7.48-16.66,6.82-16.45-.82-16.85-1-19-7.38-2.6-7.82-4.19-9-13.67-9.76-8.93-.75-11.43-1.64-18.45-6.57-28.77-20.2-36-21.92-44.19-10.47-6.1,8.59-11,27.3-13.28,50.45-3.17,32.54-4,36.93-6.78,37.33-1.6.23-5.76-2.72-21.06-14.89-2.19-1.74-3-3.31-4.29-8.57-1.81-7.25-4.59-11.79-10.52-17.18-10.33-9.42-8.33-15.94,18.41-59.94C48.74,64.51,47.66,64.9,60.06,76.69c16.31,15.52,24.35,13.48,35.35-9,8.24-16.78,7.74-16.8,38.4,1.71,31,18.75,33.8,19.21,112.17,18.85,27.08-.13,31.15-12.92,15.1-47.39-5.28-11.32-6.42-15.95-5.44-22.11,1.13-7.17,1.85-7.56,7.73-4.2"/></svg>