<svg xmlns="http://www.w3.org/2000/svg" viewBox="0 0 286.4 237.35"><title>circuit-Korea</title><path fill="#ffffff" d="M127.63,1.16c-15.38,7-35.39,24.41-43.8,38.15-6.24,10.2-5.33,9.74-20.51,10.27-20,.7-24.22,3.74-35.51,25.57-12,23.29-11.84,28.08,1.71,41.7,10,10.08,10.42,8.68-4.66,16.84-17.67,9.55-24,16.18-24.76,26-1.44,18,13.08,29.41,28.61,22.39,7.57-3.43,10.28-.78,14.9,14.56,5.59,18.49,9.91,21,32.08,18.35a133.76,133.76,0,0,1,16.19-1.14l4.09.29,2.64,8c4.71,14.28,10.81,18.12,21,13.2,9.91-4.79,13.72-12.7,13.43-27.85-.33-17.32,2.68-19.25,27.28-17.57,11.4.78,17.78,0,46.25-5.46,9.4-1.8,27.4-5,40-7.05,39-6.4,42.24-8,38.85-19.72-3.71-12.76-8.8-16.25-30.1-20.62C197.66,125.21,75.19,97,70.88,94.63,68.67,93.39,117.63,60.72,154,39.14c12.81-7.59,17.51-12.41,17.49-17.92,0-9.21-7.25-11.84-20.23-7.36-5.64,2-7.25,1.6-7.28-1.58C143.94,3,135.78-2.54,127.63,1.16m6.48,15.53c1.83,7.73,2.24,8.55,5,10,3.22,1.66,7.16,1.5,11.52-.48q6.78-3.08,1.79,1.12c-3,2.52-67.77,43.81-79.2,50.48C45.5,94,51.61,104.9,92.08,111.64c17.32,2.89,39.81,7.86,118.62,26.23,19.48,4.54,38.79,8.88,42.91,9.64,13.6,2.5,21.81,7.3,21.09,12.32-.32,2.26-1.55,2.52-54.42,11.38-22,3.69-41.31,7.08-42.92,7.53-5.87,1.67-17.59,1.91-23,.48-20.46-5.37-35.1,10.24-32.24,34.4.74,6.25-6.38,14.82-10.49,12.63-1.51-.81-2.15-2.41-5.37-13.43-2.81-9.61-10.76-12-28.31-8.69-18.22,3.48-20.19,2.13-27.66-19.08-4.76-13.51-12.5-18-22.76-13s-16.8,1-16.8-10c0-7.15,5-11.59,25-22.38,17.2-9.26,17.76-14.35,3.15-28.51l-9.2-8.93L30,97.7c.27-3.28,1.88-7.71,6-16.53,9.11-19.44,9.69-19.88,27.58-20.89,19-1.07,19.16-1.17,32.1-18.24,9.56-12.61,18.74-21.16,31.21-29.06,5.28-3.35,5.56-3.21,7.19,3.71"/></svg>