<svg xmlns="http://www.w3.org/2000/svg" viewBox="0 0 346.76 219.62"><title>circuit-France</title><path fill="#ffffff" d="M9.41,1.54C6.06,3.59,4.44,6.05,2,12.9c-4.37,12-1.67,16.18,10.46,16.18H20v5.83c0,8.8,7.2,15,25.47,22C51.55,59.19,57.15,62.49,70,71.34c10,6.89,13.14,7.74,28.69,7.74,15,0,12.08-1.32,34.22,15.79,71.22,55,105,80,108,80,5.79,0,8.25-3.94,8.25-13.25,0-10.85,6.73-12.54,15.82-4,15.44,14.56,33.56,17.21,52.46,7.67,5.85-3,6.26-3.05,7.29-1.63,2.91,4,1.38,7.76-7.69,19.11-4,5-8.18,11-9.25,13.31-10.19,21.84,25.37,33.57,36.6,12.08l2.38-4.56-.26-23.76c-.31-27.56-.32-27.6-9.37-37.32-6.39-6.85-4.39-5.94-50.8-23.06-50-18.43-51-18.94-63.52-31.82-8.27-8.53-14.31-9.5-19.55-3.14-5.46,6.63-9.79,7.32-13.51,2.15l-2.88-4-24.07-9c-29-10.88-113.69-43.06-117.91-44.84-2.69-1.13-3.36-2.09-6.16-8.84C32.64,5.31,18.18-3.8,9.41,1.54M20.52,12.29C28,17.7,31.64,24.92,24.8,20.75c-2-1.23-4.2-1.66-8.36-1.67C10.23,19.08,10,18.8,12,14s3.58-5.26,8.52-1.68M33.69,32.35a15.7,15.7,0,0,0,4.91,4.52c3.11,1.46,75.89,29.25,114.83,43.83,26,9.73,27.29,10.33,29.17,13.22,5.78,8.89,14.42,9.13,23.94.68,5.32-4.73,4.2-4.93,10.8,1.88a91.36,91.36,0,0,0,13.39,10.79c8.28,5.36,6.23,4.53,64.62,26.09,16,5.92,30.28,11.65,31.72,12.75,3.43,2.62,8.58,10.18,9.26,13.6.71,3.6-.53,3.43-2.59-.36-4.14-7.58-9.74-8.34-20.82-2.83-15.81,7.87-29.92,5.48-42.63-7.22-5.81-5.82-7.87-6.89-13.3-6.89-9.6,0-17.84,7.28-17.84,15.76,0,2.36-.35,3.41-1.16,3.41-1.44,0-52.9-38.82-114.67-86.51-6.62-5.11-8.17-5.49-24.58-6-17.12-.5-13.42.86-32.21-11.83a106,106,0,0,0-16-9C34,41.74,30,38.82,30,33.21c0-5,.73-5.15,3.7-.86M337.32,184.91c.06,20.23-2,24.59-11.46,24.59-13.39,0-13.2-5.4.79-23,3.56-4.46,7.16-9.93,8-12.16,2-5.33,2.61-3.07,2.65,10.54"/></svg>