<svg xmlns="http://www.w3.org/2000/svg" viewBox="0 0 328.51 215.29"><title>circuit-Belgium</title><path fill="#ffffff" d="M99.45,1.21a60.64,60.64,0,0,0-6.7,3.69c-5.66,3.64-9.65,4.78-27.47,7.91-20,3.52-33.71,7.5-48.93,14.21C-1.29,34.79-5.45,48.21,7.78,54.71L12.37,57l32.5-.27c36.6-.31,36.46-.33,38.06,5,2.74,9.16,7.38,11,37.35,14.86,27.93,3.6,30.74,4.67,42.15,16.14,16.39,16.48,18.16,21.34,18.43,50.53.28,30.37,3.4,43,14.27,57.69C207,217,217.05,219,241.42,209.85c15-5.62,16.17-16.16,3.51-32.27-9.33-11.88-9.13-15.9,1.28-25.29,13-11.73,12.44-15.49-5.38-35.1C220.66,95,218.42,89.83,223.82,78c3.57-7.81,9.47-8.4,27.25-2.72,5.24,1.68,14.36,4.14,20.26,5.47,20.86,4.71,21.85,5.58,21.93,19.39.09,13.26,2.74,18.14,11.45,21,17.84,5.92,26.4-6.22,23.11-32.79-4.34-35.09-7.39-41.65-20.11-43.16-8.28-1-9.79-1.77-10.83-5.66-3.25-12.17-3.75-12.49-26.24-17.2-6.44-1.35-18.63-3.61-27.08-5S219.09,12.74,208,10.23C171.33,2,169.35,1.8,132.78,3.72c-9.75.51-10.85.4-17.33-1.65-7.82-2.48-11.78-2.69-16-.86m13.92,11.5c9.56,2.94,10,3,28.58,1.58,23.62-1.77,28.14-1.24,71.91,8.45,9.26,2.05,28.09,5.85,41.84,8.45,27.55,5.21,28.14,5.41,29.39,10.34C287,49,292.77,54.12,301,55.71c7.4,1.44,8.1,1.94,10.1,7.24,9.26,24.52,8.69,49.27-1.1,47.43-5.16-1-5.93-2.72-6.43-14.55-.7-16.7-3.18-19-28.16-25.56-7.64-2-18.4-5-23.9-6.73-26.55-8.1-39.36-1.32-40.27,21.3-.58,14.37,2.42,20.42,18.46,37.27s15.74,16,6.46,24.33c-13.08,11.81-12.91,19.67.82,38.17,7.78,10.48,7.18,13-4.13,17-13.74,4.94-21.68,2.54-29.42-8.89C194.22,179.1,192,169,191.93,141c0-26.77-.79-29.74-11.52-44.75-15.3-21.41-24.81-26.3-60.13-30.9C99.46,62.6,96,61.74,94.87,59.09,89.61,46.23,84,44.21,56.53,45.4c-33.53,1.47-42.42,1-41.92-2.35.63-4.25,27.67-14.5,49-18.58C85.33,20.33,89.87,19.1,95,16c9.77-6,9.73-5.94,18.39-3.28"/></svg>