<svg xmlns="http://www.w3.org/2000/svg" viewBox="0 0 346.68 230.54"><title>circuit-Mexico</title><path fill="#ffffff" d="M26.68,1C-1.55,9-9.61,49.69,13.38,68.07c11.85,9.47,14.16,9.78,74.52,10.05,74,.33,68.92-.68,79.22,15.75,12.25,19.54,23.27,24.43,41.62,18.47,14.62-4.74,19.78-3.46,25.63,6.35,6.27,10.53,10.67,13.75,20.26,14.88,13.35,1.57,15.64,15.4,4.11,24.84-13.34,10.93-12.16,26.27,2.81,36.64,5,3.47,5.74,6.54,3.06,12.89-4.66,11.07.84,22.6,10.78,22.6,3.58,0,29.56-19.2,34.52-25.51,4-5,1.57-14.07-4.67-17.59-13.73-7.73-14.26-5.78,27.08-98.15,14.62-32.66,15.66-35.95,13.5-42.52a18.33,18.33,0,0,0-10.89-10.83c-5.27-1.75-5.77-2.82-5.79-12.22-.05-19.49,0-19.46-60.82-20.66C104.89-.18,32.93-.8,26.68,1m134.56,10c92.73,1.51,150.9,2.81,154,3.43,3.24.66,3.95,2.57,4,10.49,0,11.88,3.11,17.89,10.2,19.74,10.56,2.75,10.35,3.87-8.44,46.05-16.61,37.28-28.89,65.66-32.35,74.81-4.59,12.11-.7,23.13,10.51,29.75,4.49,2.66,3.53,4.09-9.73,14.5-13.05,10.24-13.79,10.67-15.65,9.13-1.68-1.39-1.51-4.44.45-8.3,3.8-7.45,1.82-16-5-21.75-12.45-10.39-12.94-14.24-3-23.84C283.64,148,277.4,126.62,254,123.48c-4.79-.64-6.92-2.53-11.34-10.07-8.37-14.28-16.82-16.55-38-10.2-14.58,4.37-19.54,1.27-33-20.66-3.22-5.23-9.51-10.49-14.77-12.35-2.79-1-13.77-1.3-59.94-1.73-69-.65-69.34-.68-78.13-8.79C3,45.09,9,16.62,29.15,10.48c3.37-1,50.94-.86,132.09.46"/></svg>