<svg xmlns="http://www.w3.org/2000/svg" viewBox="0 0 221.75 126.06"><title>circuit-Canada</title><path fill="#ffffff" d="M38.41.13c-18.1,3.1-32.9,8.4-36.5,13.1-2.6,3.2-2.5,7.7,0,10.2s5.2,2.5,8.5.4c2.4-1.6,2.6-1.5,10.2,5.6,6.8,6.3,9.8,8.2,23.8,15,8.8,4.2,20.4,9.7,25.9,12.1,8.3,3.6,10.1,4.8,11.2,7.5,1.8,4.2,9,8.4,46.2,26.6,23.7,11.5,34.7,16.3,48.7,21,9.9,3.3,22.1,7.8,27,9.9,12.5,5.3,13.9,5.5,16.5,2.9a6,6,0,0,0,1.8-5.3c-.3-3-1.1-3.6-11.8-9.2s-12.5-6.9-24.1-18.5c-13.7-13.6-19-21.1-17-24.2,2.1-3.4,1.1-6.4-5.3-14.9-8.5-11.3-21.2-23-35-32.2-15.1-10.1-20.2-11-26.4-4.6L99,18.73l-9.7-7.4-9.7-7.4-7.1.1c-3.9.1-11.2.5-16.2.9-8.9.7-9,.7-10.6-1.8C43.91.53,41.71-.37,38.41.13Zm4,8.9c2.6,2.5,2.7,2.6,13.3,1.9,23.4-1.4,20.5-1.9,31.2,6.2,11.4,8.7,13.9,9.2,18.8,3.7,4.2-4.8,6.4-4.3,18.5,3.7,17.3,11.6,25.3,19.2,37,34.9,1.8,2.5,2.3,4,1.7,5-3.7,5.8,2.4,15.9,19.7,32.7,10.3,10.1,13.9,13,20.6,16.3,9,4.5,11.4,6.1,5.2,3.5-8.9-3.7-16.8-6.7-33.5-12.4-13.9-4.8-24.2-9.3-50.5-22.5-18.1-9.1-33.7-17.1-34.5-17.8a11.13,11.13,0,0,1-2.5-4.2c-.9-2.5-3.6-4.1-23-13-31-14.4-32-15-40.7-23.3-7.1-6.7-8.2-7.5-11.1-7.1a35.65,35.65,0,0,0-5.2,1.3l-2,.8,2-2c3.5-3.6,22.1-9.8,30.2-10.2C38.81,6.43,41,7.63,42.41,9Z"/></svg>