<svg xmlns="http://www.w3.org/2000/svg" viewBox="0 0 309.53 208.27"><title>circuit-Monaco</title><path fill="#ffffff" d="M258.07,5.18c-48.33,24.89-49.54,26.15-44.53,46.54,3.35,13.63,2.53,18.85-3.59,22.93-4.85,3.25-10.46,2.61-30.7-3.48C174.48,69.74,168,68.73,158,67.88c-11.61-1-17.67-2-31.46-5.38-9.4-2.29-23.65-5.52-31.67-7.18-17-3.52-26.17-6.15-33.49-9.62C50.71,40.65,47,43.27,34.45,64.9,7.19,111.77-2,141.05,2,168c1.49,10.07,1.49,10.1-.3,15.4C-2.37,195.37,0,198.26,19,204.49c17.77,5.82,26.9,4.94,29.22-2.81,1.52-5.06-.09-9.14-6.28-15.88-7.76-8.45-10.47-15.08-12.21-29.78-1.06-9-.69-9.94,4.14-10.81,9.05-1.62,18.58-25.59,15.41-38.74l-1.44-6,5.18-10.23c8.4-16.61,11.32-18,26.57-12.41,4.48,1.64,14.46,5.2,22.17,7.92,17,6,16.58,5.77,19.69,10.29,6.25,9.09,17.14,9.7,23.56,1.32,3.65-4.76,4.83-4.74,26.85.38,26.45,6.14,29.68,6.63,43.39,6.6,31.4-.08,48.74-10.46,77.82-46.59,18.65-23.19,20.63-30.3,9.88-35.64-10.48-5.22-19-1.95-21.88,8.39-1.61,5.72-3.35,8-4.66,6-1.15-1.75-.25-5.6,3.46-14.84C288.19,1,279.27-5.74,258.07,5.18m14.3,7.23a15.09,15.09,0,0,1-1.67,5c-5.82,11.41-5.44,28,.73,31.18,6.77,3.51,16.77-1.64,16.77-8.63,0-4.67,3.62-10.14,6.54-9.9,5.63.47,4.28,4.88-4.82,15.67-2.13,2.52-6.1,7.56-8.83,11.2-19.68,26.18-37,36.64-62.47,37.71-12.13.51-14.9.12-42.39-6.06-29-6.51-31.06-6.47-37.35.61-4.66,5.25-6.3,5.11-10.85-1-3.74-5-7.13-6.68-21.49-10.87-6.65-1.94-16.31-5.16-21.47-7.15-20.52-7.92-27-6.34-37.15,9.11-9.89,15-11.26,19.61-8.35,27.83,1.39,3.94,1.84,6.56,1.48,8.58-.68,3.85-7.92,18.46-9.51,19.2l-5.17,2.33c-6.2,2.76-6.81,4.3-6.26,15.79.76,16,5,28.1,13,37.22,7.23,8.26,3.5,9.76-11.62,4.65-9.79-3.3-10.88-4.4-9.72-9.79.63-2.87.56-7.11-.23-15.23-3-30.26,3.07-52.21,23.58-85.81,3.22-5.28,8.66-14.2,12.07-19.82,7.5-12.34,4.22-11.93,31.73-4,38.5,11.15,57.71,15.35,78.37,17.12,8.66.74,14,1.78,24.09,4.63,33.08,9.41,47.62.4,42.66-26.44-3.36-18.19-3.32-18.31,8.5-25.13,29.17-16.84,39.85-21.68,39.85-18.06"/></svg>