<svg xmlns="http://www.w3.org/2000/svg" viewBox="0 0 320.96 102.13"><title>circuit-Spain</title><path fill="#ffffff" d="M38.19.32C11.73,2.33-7.57,30.9,2.9,52.58,6,59.05,9.75,61.66,23.44,66.89c13.87,5.3,15.8,7.28,17.23,17.6,1.4,10.11,2.65,12.53,7.7,15l4,2,120,.49c66,.28,122,.19,124.47-.18,15-2.27,23.27-13,24-31.15.46-11.47,0-12.42-7.64-16.25l-5.83-2.91-.47-11.67c-.76-19.24-1.77-20.19-33.89-32.13-12.87-4.79-24.4.68-25.76,12.21-1.16,9.8,3,15,15.29,19.12C272,42.14,276,45.8,278.05,53.3c4,14.13,1.24,15.12-14.09,5.14-5-3.26-21.1-13.06-35.77-21.77s-30.42-18.21-35-21.1C167-.92,155.18.78,140.3,23.14c-3.05,4.59-8.06,12-11.13,16.39-7,10.12-8.72,13.94-9.75,22.08-1.29,10.22-2.1,10.73-16.46,10.57C84,72,81.45,71.08,61.82,58.05c-19.1-12.67-19-13,4.45-13.82,39.6-1.45,50.09-6.2,51.31-23.24C118.65,6.12,112.14.91,91.94.49,63.92-.1,44.43-.16,38.19.32M74,10.22c35.33,2.24,32.46,1.35,31.92,9.84-.72,11.31-4.92,12.85-35.85,13.16-29.91.3-33.15,1.52-33.15,12.42,0,6.41,3.28,10.66,12.92,16.73,2.75,1.73,8.15,5.52,12,8.42C74,80,80.92,82.29,98.61,83.22c21.35,1.14,28-2.8,30.06-17.76,1.16-8.56,3.45-13.22,11.14-22.71A159.65,159.65,0,0,0,150.33,28C160.61,11,167.1,10.55,189,25.21c4.59,3.06,21.09,13.18,36.67,22.49s30.49,18.39,33.13,20.18C283,84.28,297,77.77,289,53.87c-4.44-13.23-7.61-17.29-16.27-20.8-11.75-4.78-15-7.17-15-11.12,0-5.72,4.18-6.36,14.82-2.27,4,1.53,10,3.62,13.4,4.63,9.61,2.9,9.78,3.2,10.31,18.35.53,14.71,1,15.76,7.91,19.25,7.8,3.92,8.47,6.81,4.25,18.1-4,10.61-8.06,12.25-30.27,12.16-239.41-1-227.08-.55-227.08-8.73,0-12.93-4.88-18.26-23.47-25.64C10.3,50.91,5.62,40.94,13.2,27,21.68,11.45,35.05,7.75,74,10.22"/></svg>