<svg id="circuit-China" version="1" xmlns="http://www.w3.org/2000/svg" viewBox="0 0 480 360">
    <path fill="#ffffff" d="M243 58.7c-6.5 2.2-14.4 7.7-19.5 13.7-8.4 9.5-14.5 23.4-29 65.6-10.5 30.4-27.7 75.6-38.2 100.3l-7.6 17.8-39.1-.2c-35-.3-39.7-.1-45 1.5-3.2.9-6.9 2.4-8.2 3.2-3.6 2.4-5.6 7.7-4.9 12.8 1.5 9.6 6.1 13 19.7 14.7 5.3.6 69.4.9 176.8.7 160.5-.3 168.7-.4 172.1-2.1 5.5-2.7 10.8-8.5 13.7-14.7 3.4-7.1 4.2-21 1.9-29.1-3.5-11.8-10.5-18.9-20.8-21.1-8.1-1.7-13.9-.4-18.9 4-5.4 4.7-6.4 10.5-3.1 17 4.1 8.1 6.3 7.6-31.1 6.8-18.3-.3-40-1.1-48.3-1.6-8.2-.5-26-1.2-39.5-1.5-13.5-.4-26.8-1.1-29.7-1.6-6.2-1.2-10.3-4.1-10.3-7.4 0-4.7 8-9.5 33-19.4 8.5-3.4 17.4-7.3 19.8-8.7 9.9-5.8 14.8-12.4 15.9-21.4 1-8.5-.2-11.5-7.7-19.6-5.5-5.9-7.3-8.6-8.6-13.1-4.2-14.5 2.5-29.9 16.1-37.1 4.5-2.4 6-2.7 15-2.6 9.2 0 11 .4 23 4.6 7.2 2.5 17.7 6.4 23.5 8.6 21.5 8.3 40.2 7.5 46-2.1 3.8-6.2 1.9-15.4-4.1-20-4.2-3-14.3-8.2-22.4-11.3-3.3-1.2-11.2-4.7-17.5-7.7-25.6-12.1-29.9-12.2-66.6-.4-20.6 6.6-31 9-36.1 8.4-4.7-.5-7.8-2.6-8.6-5.9-.6-2.2-.5-2.2 10.3.3 4.9 1.1 6 1 9.4-.6 6.3-3 9.6-10.4 8.1-18.2-.9-5.2-7-10.8-13.7-12.8-6.7-1.9-19.9-1.9-25.8.2zm22 12.1c3.5 1.7 5 4.6 3.3 6.3-.5.5-3.9 0-8.1-1.2-7.1-2-7.2-2-11.6 0-7.4 3.2-9.6 11-5.7 19.6 5.4 11.7 16.4 15.6 34.1 12.1 4.5-1 17.8-4.9 29.4-8.8 18.9-6.3 21.9-7.1 29.1-7.1 8.7-.1 12.4 1.1 26 8.6 3.9 2.1 11.9 5.8 17.9 8.3 10.8 4.3 18.6 8.6 18.6 10.3 0 1.6-5.2 3.1-10.6 3.1-4.3 0-10.2-1.7-28.7-8.4-29.5-10.7-37-12.4-47.5-10.8-24.1 3.8-40.9 23.8-38.8 46.2.9 9.7 3.1 14.9 9.1 22.1 10 11.7 10.7 16.8 3.4 23.9-3.8 3.7-19.4 11-38.2 17.9-18.4 6.7-24.7 13-24.7 24.6 0 6.9 1.8 11.3 5.9 14.8 6 5 11.1 5.8 42.6 6.7 16 .5 42.7 1.6 59.5 2.5 58.8 2.9 60.9 3 67.2 1.1 8.2-2.4 10.9-5 11.6-11.4.3-4 0-5.9-1.7-8.7-3.3-5.7-2.9-7.5 1.9-7.5 8.2 0 14.5 6 15.9 15 1.7 11-2.4 20.6-10.7 24.9-1.7.9-44.6 1.2-172.9 1.1-177.4 0-175.8 0-175.8-4 0-4.1 13.8-4.8 53.5-2.9 29.3 1.5 32.9.9 39-5.8 4.9-5.2 8.9-13.4 15.5-31.8 5.6-15.5 17.8-47.7 30.8-81.5 5.2-13.5 11.3-30.4 13.6-37.5 6.3-19.1 11-28.3 18.2-35 8.8-8 20.7-10.8 28.9-6.7z"/>
</svg>