<svg xmlns="http://www.w3.org/2000/svg" viewBox="0 0 243.64 237.15"><title>circuit-Hungary</title><path fill="#ffffff" d="M6.32,1.48C-.21,5.61.14-.3,0,107.74-.08,215.35-.22,212.38,5.34,220.58c6.78,10,24.52,10.18,31.16.33,3.92-5.82,4.53-9.9,5.24-34.66.87-30.64,2.41-37.08,8.88-37.08,9.78,0,12.07,15.48,5.7,38.33-11.71,41.95-6.09,46.22,64.82,49.23,34.72,1.47,36.89.22,40.52-23.49,3.34-21.83,3.67-22.15,33.22-32,28.44-9.43,30.87-14.08,19.87-38.1-8.46-18.47-8.67-16.92,4.76-34.7,9-11.85,9.24-12.12,14.22-13,11-2,11.93-8.66,7.2-54-1.24-11.89-6.5-18.57-16.21-20.59-9.45-2-15.16,1.35-25.06,14.53C186.58,52.79,184,54.1,146.32,62.81c-25.81,6-31.32,6.88-47.92,8-25.46,1.75-30.83,4.56-36.65,19.24-8.92,22.5-13.68,26.14-18.94,14.49-1.32-2.92-1.45-5.28-1.14-20.39,1.06-51.16.82-53.66-6.39-66.64C27.91,4.28,14-3.41,6.32,1.48M17.6,12.1C30.27,18.52,33,29.17,33,72.5c0,36,.31,38,6.45,44,9.53,9.2,19.4,4.34,26.93-13.25,9.68-22.61,9.25-22.34,37.86-24,12.85-.75,16.16-1.35,55.84-10.14,24.52-5.44,33.58-10.34,43.49-23.54C213,32.9,216.56,30,222.41,30c7.67,0,8.88,3.58,10.74,31.8,1.57,23.89,1.63,23.51-4,24.46-5.1.86-8.32,3.61-13.72,11.74-2.75,4.13-6.92,10.12-9.27,13.3-8.9,12.06-9,14.2-1.27,31.53,10,22.5,10.59,21.51-17.77,31.32-28.93,10-31.32,12.47-34.15,35.26-2.06,16.59-3.5,18.1-17.28,18.07C99,227.41,68,223.8,63.26,219c-2.62-2.62-1.7-12.67,2.69-29.44,6.88-26.3,4.58-40-7.91-47.15-8.46-4.85-17-2.43-21.37,6-2.91,5.68-3.49,10.91-4,36.53C32,216.08,31.18,218.34,21,218.34c-5.86,0-7.65-1.39-10.19-7.92-1.39-3.58-1-198.89.39-199.78s1.92-.81,6.42,1.46"/></svg>