<svg xmlns="http://www.w3.org/2000/svg" viewBox="0 0 292.79 209.89"><title>circuit-Bahrain</title><path fill="#ffffff" d="M40.35,2.56c-5.44,4.58-6,7.28-14.36,66.69-2.77,19.71-6.19,42-7.6,49.58-3.51,18.82-3.2,25.41,1.74,37C26.76,171.31,26,174,12.6,183.05c-14.28,9.6-16.66,19.43-5.91,24.4l3.9,1.8,126.25.42c148.18.49,138.62,1,147.85-7.53,9.68-8.93,10.43-15.74,3.59-32.89-2.56-6.42-12.34-33.23-21.73-59.58C234.72,20.36,233,16.26,223.63,7.79c-10-9-16.8-6.43-36.83,14.1-22.19,22.74-26.44,31.86-22.86,49,3.94,18.92,11.64,25.49,41.64,35.5,20.08,6.7,26.37,11.87,31.64,26,3.85,10.32,2.4,16.65-4.48,19.53-3,1.27-150.27,1.73-158.82.5-8.28-1.19-9.71-6.38-3.43-12.4,7-6.7,14.54-6.89,48-1.21,29.57,5,39.15,4.62,42.24-1.81,4.26-8.84.81-13.66-19.22-26.86-26.41-17.41-27.34-18.79-28.08-41.75-.79-24.77-3-28-24-35.43-10.79-3.83-15.62-6.94-20.56-13.26C53.92.51,47.42-3.39,40.35,2.56M51.8,14.87A109.59,109.59,0,0,1,59.42,24c7.21,9.45,10.27,11.7,22.73,16.63,20.46,8.1,21.43,9.48,21.14,30l-.2,13.66,3.12,6.54c4.35,9.1,11.09,15.56,27.71,26.54,24.44,16.16,20.42,18.65-17.91,11.1-28.27-5.56-40.36-5-49.38,2.34C52.85,142,53,158.36,66.87,162.2c4.57,1.26,157.84,1.16,164.52-.11,30-5.69,21-48.86-13-62.29-3.37-1.33-9.69-3.45-14-4.7-23-6.64-31-15-31-32.39,0-12.8,13.15-30.66,34.68-47,8.45-6.43,15,1.9,25.4,32.34,8.28,24.23,39.2,108.82,45.57,124.65,5.67,14.1,4.07,20.22-6.72,25.77l-4.87,2.5-100.89-.28c-108-.29-151.7-1-153.25-2.59s.14-3.33,6.59-7.79C36,179,37,174.89,29,152.58c-3.79-10.58-3.88-15.7-.56-35,1.35-7.81,5.53-33.89,9.29-57.95,8.32-53.14,7.66-51,14.06-44.8"/></svg>