<svg xmlns="http://www.w3.org/2000/svg" viewBox="0 0 304.4 127.59"><title>circuit-Russia</title><path fill="#ffffff" d="M77.75.57C69.48,1.63,66.5,2.66,64.36,5.21l-2.2,2.61.55,19.63c.79,28.76.9,28.63-21,26.37C10.92,50.64,13.17,49.94,5.39,65.11c-6,11.77-6.39,15.21-4,39.77,2.62,27.36,1,26.74,41,15.16,39.49-11.41,38.3-10.32,34.54-31.71-2.27-12.89-1.1-19.6,4.54-26,8.66-9.84,26.29-10.06,33.57-.43C120.1,68.6,126.62,81,127.29,85.16c.49,3.16,1.29,4.86,3,6.29l2.27,2,50.54-.26c65.09-.34,55.25,3.13,93.87-33.06,34.42-32.26,33.46-29.21,13.88-43.93C275.06,4.31,277.12,3.81,255,24.73c-22.78,21.56-23.89,23.52-17.73,31.18,3.33,4.14,3.2,5.79-.75,9.36-8.69,7.85-15.88,7.71-15.88-.32,0-9.52-2.48-11.45-14.59-11.42-16,0-23.83-3.44-43.75-19.42C129.77,8,102.91-2.68,77.75.57M97,10.87c18.06,3.2,36.13,12.62,58.28,30.36,20.88,16.73,29.17,20.83,44.64,22,9.23.72,10.78,1.53,10.78,5.68,0,4.95,2.13,8.12,7.32,10.91,6.65,3.57,6.67,3.57-39.38,3.3l-40-.23-2.77-5.36C122.7,52.12,114.47,44.83,99,44.88,75.35,45,62.76,62.13,66.92,88.64c2,12.77,1.79,13.38-5.22,15.43-41.85,12.26-47,13.6-48.17,12.48-1.43-1.43-4-27.32-3.47-34.56.44-5.64,6.15-18,9-19.55,1.07-.58,7.5-.18,21.1,1.31,22.88,2.5,23.73,2.37,27.93-4.25,4.91-7.75,5.33-10.39,4.68-29.57-.47-13.68-.37-17.4.48-17.93C76.41,10.07,89.05,9.47,97,10.87M282.82,22.62c6.78,4.77,8.68,6.59,8.68,8.3,0,2.54-44.5,44.3-50.93,47.8-6.09,3.31-7.92,2.41-2.79-1.38,14-10.34,16.79-16.34,11-23.42-4.26-5.2-4.2-5.36,5.44-14.59,24.11-23.09,21.61-21.63,28.61-16.71"/></svg>