<svg xmlns="http://www.w3.org/2000/svg" viewBox="0 0 346.24 299.29"><title>circuit-Austria</title><path fill="#ffffff" d="M272.27,1.34c-7.24,3.57-8.79,6.31-42.69,75.6-36.78,75.2-36.11,73.56-36.15,88l0,10.42,5.7,15.42c8.63,23.37,6.5,34-7.64,38.15-9.6,2.82-55.43,3.05-60.78.31-15.8-8.11-14.14-23.35,5.15-47.21,8.79-10.88,18.79-25.95,22.4-33.77,15.86-34.38-3.27-87.43-26.6-73.75-4.13,2.41-5.72,4.73-19.53,28.35C90.38,140,76,162.66,62.6,180.79,58,187,47.47,201.23,39.15,212.45c-19,25.63-17.44,23.06-29.22,48.75C.18,282.47,0,283,0,288.85c0,12.69,3,13.15,32.08,4.94,12.15-3.43,32-8.93,44.17-12.23l22.08-6,15-.35c8.25-.18,36.94-.66,63.75-1,53.78-.77,50.71-.5,85.84-7.56,6.64-1.34,16.77-2.86,22.5-3.39,12.35-1.13,15.29-2.27,17.62-6.84,1.81-3.54,7-27.29,29.19-133.08l13.36-63.75L346,43.7c.85-31.11,1-30.94-35.89-38.7-25.61-5.39-32.92-6.1-37.86-3.66m34.4,13.21c31.66,6.2,29.79,4.4,29.31,28.32l-.33,16.67-13,61.66c-19.14,90.94-26.25,124-27.12,126.3-1.49,3.9-3.65,5-11.9,5.88-7.29.8-14.47,2-40.73,7.05-17.34,3.3-25.61,3.72-86.67,4.44l-58.75.69L57.24,276.51c-47.05,12.79-47.07,12.79-45.73,6.13,1.22-6.11,18.25-40.81,23.71-48.31,3.09-4.23,15-20.36,26.41-35.83,21.72-29.36,33-46.64,56.89-87.3,19.5-33.14,21.77-34.56,29.69-18.52,12.66,25.62,7.12,49.81-18.65,81.44-19.4,23.82-23.28,36.2-16,51,7.76,15.78,16.46,17.73,66.26,14.9,15.69-.89,21-2.84,27.56-10.16,9.32-10.36,9.69-19.09,1.75-40.35-10.52-28.14-11.08-25.69,21-91.25,13.58-27.73,28-57.28,32.14-65.67,12.63-25.83,10.08-24.79,44.37-18.07"/></svg>