<svg xmlns="http://www.w3.org/2000/svg" viewBox="0 0 286.64 249.16"><title>circuit-America</title><path fill="#ffffff" d="M273.8,1.76a72.68,72.68,0,0,0-8.33,5.7c-7.63,6-31.77,22.19-46.66,31.31-33.92,20.77-50.42,29.35-102.92,53.49C82.52,107.6,82.26,108,97.58,118.49c2,1.39,2,1.41-4.06,1.45C86,120,82,121.68,80.38,125.51c-1.86,4.45.29,7.85,15.15,23.92,10.41,11.26,11.27,19,3,27.28-6.52,6.49-9.77,5.79-27.22-5.88C42.72,151.71,43.59,151.66,19.14,174-3.9,195-5,198.82,9.87,204.48c66.49,25.21,121.07,44.68,125.26,44.68,5.14,0,8.62-3.75,8.06-8.7-.44-3.94-.68-4.31-14.17-22.06-4.93-6.48-9-12.4-9-13.15,0-2.12,6.26-9.85,21-25.92,6.93-7.54,9-12,9-19.52v-6.07l5.29-4.74c7.47-6.67,8.38-8.94,7.66-19.08s.74-14.32,6.2-17.94l3.47-2.29,8.9,1.41c16.43,2.6,18.66,1.78,24-8.75,3.42-6.8,3.89-7,15.21-8.12l8.62-.81,13-7.34c19.95-11.26,18.52-9.3,32.53-44.45,13-32.51,13.46-34.54,9.65-39.08-2.63-3.12-5.94-3.37-10.77-.79M275.06,14c0,1-18.58,47.4-20.33,50.79-3.48,6.7-26,19-36.2,19.7-13.33,1-16.46,2.7-20.83,11.68-3.36,6.89-3.21,6.83-15.55,5.05l-10.23-1.49-4.47,2.08c-10.55,4.89-14.43,11.87-14.46,26l0,9.9-5.53,5.1c-6.95,6.4-7.45,7.42-7.3,14.95s.26,7.46-12,21.26c-22.85,25.68-22.72,24.78-6.59,46,5,6.64,8.85,12.21,8.44,12.36-1.22.45-34.68-11.46-84.92-30.23-13.06-4.88-25.63-9.56-27.92-10.39-6.41-2.32-5.64-3.31,19.52-25.28,7.75-6.77,8.7-6.5,31.33,9,15.2,10.39,20.34,11.78,30.63,8.27,12.92-4.4,19.73-28.28,11-38.5l-2.93-3.42,4.87.07c8.18.11,15.84-3.2,17.68-7.66,2.53-6.1-.63-10.21-17.33-22.53-4.64-3.42-8.33-6.6-8.19-7.06s6.21-3.59,13.51-7c34.2-15.83,66.24-31.55,77.93-38.26,26.26-15.06,62.95-38.56,74.92-48,3.86-3,5-3.57,5-2.32M113.5,130.2c5.36,4.37,5.66,5.19,2.33,6.35s-3.79.87-6.23-4.66c-3-6.71-2.5-6.92,3.9-1.69m-15.79,1.4c1.86,1.46,4.64,8,3.77,8.92-.48.47-8.92-8.77-8.92-9.77,0-1.32,3-.83,5.15.85"/></svg>