<svg xmlns="http://www.w3.org/2000/svg" viewBox="0 0 315.56 192.63"><title>circuit-UK</title><path fill="#ffffff" d="M71.88,1.26c-13.48,4.33-20,15-17.11,28.15C56,35,35,54.82,18.56,63.47,4.13,71.09,0,75.92,0,85.41-.07,101.84,6,106,101.74,154.26c25,12.63,27.36,14.36,34.79,25.84,9.2,14.22,16.16,15.93,29.26,7.2,8.53-5.69,14.4-6.07,24.33-1.57s13.77,4,27.8-3.72c4.55-2.52,9.36-3.15,34-4.45,28.32-1.5,48.63-6.69,57.49-14.7,6.56-5.93,7.71-17.33,4.31-42.83-.94-7.1-1.95-15.54-2.23-18.75-3.68-42.2-10-53-38.82-66.58-15.89-7.46-25-6.88-29.41,1.89C237.53,48,245,59.13,258.32,59.18c5.73,0,9.35,1.26,9.54,3.28.53,5.33-1.29,8.84-8.46,16.32-3.08,3.21-14,15.58-24.21,27.5-44.57,51.86-41.87,49.21-50.05,49-10.19-.23-14.32-4.67-6.64-7.13,13.66-4.38,13.32-13.39-1.11-29-10.51-11.35-16.07-21.83-15-28.34.19-1.14.94-5.83,1.68-10.41C167.19,61,164.45,57,131.45,33c-10.07-7.32-22.84-16.75-28.39-21C87.69.35,81.43-1.81,71.88,1.26m18.19,14c3.07,2.11,11.52,8.45,18.77,14.08s19.62,15.11,27.48,21.07c19.54,14.82,19.93,15.6,16.74,34-2.66,15.31-.32,22.14,12.57,36.75,12.17,13.79,12.7,15.61,5,17.21-19.47,4-11.38,24.38,10.91,27.41,12.72,1.73,18.09-1.2,30.39-16.58,7.95-9.95,40.85-47.35,53.26-60.55,11.06-11.77,13.55-16.1,14-24.5l.38-6.57-2.86-2.87c-3-3-5.56-3.92-15.47-5.52-7.3-1.18-9.87-2.91-9.08-6.09,1.12-4.43,3.73-3.94,18.64,3.56,26.6,13.39,28.24,16.88,31.45,66.93C303,124,304,135.7,304.48,139.53c1.28,9.09.65,12.19-3.14,15.52C293,162.39,275,166.52,246.9,167.57c-24,.89-27.6,1.52-36.67,6.39s-11.74,4.9-22.26.76c-12.1-4.77-14.66-4.38-26.51,4C153.21,184.59,148.81,183,143,172c-5.26-9.94-9.09-12.91-29.78-23.2-24-11.92-85.44-44.77-92.37-49.37-14.51-9.63-14-17.15,1.72-25.93C28.91,70,51,53.42,57.61,47.22c7.65-7.16,10.29-14.15,8.13-21.58-1.58-5.46-1.23-6.65,3-10.23,7-5.88,12.88-5.91,21.31-.11"/></svg>