<svg xmlns="http://www.w3.org/2000/svg" viewBox="0 0 302.92 185.41"><title>circuit-Brazil</title><path fill="#ffffff" d="M218.77.4c-4.36.28-16.73,1-27.5,1.5-40.33,2-42.21,2.54-77.09,22-6.87,3.84-28.25,15.54-47.5,26C17,77,10.3,81.15,4,89.36c-7.26,9.52-4.79,16.92,7.9,23.69,6.38,3.4,7.15,5,5.61,11.57-6.49,27.54,6.33,52.66,30,58.72,7.07,1.81,172.28,2.93,178.68,1.21,11.56-3.12,16.65-19.66,13-42.24-4-24.52-10.62-30.38-47.09-41.53-34.46-10.54-59.52-24-63.28-34-4.9-13,5.28-25.26,25.37-30.52,13.77-3.61,15.62-2.54,12.49,7.26-4.5,14.08-.33,22,12.32,23.26,11.35,1.17,17.68-3.2,24.31-16.78,5.31-10.89,7.73-13.43,18.13-19.1,13.13-7.16,13.86-4.2,3.1,12.42-12.26,18.92-11.92,32.15,1.17,45.62,6.12,6.29,41.29,19.37,54.76,20.35,25.25,1.85,30.39-35.62,9.33-68.08C266.53,5.32,253.89-1.94,218.77.4m24,10.84c12.64,2,27,15.85,41.13,39.54,12.39,20.78,11.12,47.92-2.26,47.92-9.18,0-45.2-12.94-49.2-17.68-9.3-11-8.88-17.19,2.47-36.22,7-11.69,8.36-15.47,7.72-21.07-1.06-9.4-10.83-11.24-21.83-4.1-3.21,2.09-7.88,4.88-10.38,6.22-6.93,3.71-10.24,7.42-14.87,16.66C190.4,52.9,187,56.2,181.67,56.2c-6.41,0-6.71-1.35-3.73-16.74,2.42-12.51-.41-16.16-12-15.53C124.4,26.21,102.8,59.2,127.82,82.12c9,8.26,35.58,20.39,62.61,28.59,29.81,9,37.27,16.14,39.26,37.35,1.53,16.32-.74,24.73-7,26.12-1.42.31-41.06.59-88.09.62l-85.51.06-4.64-2.26C30.55,165.82,22.75,144.78,27.52,127c2.93-10.94,1.34-15-8.46-21.78-8.46-5.81-8.49-6.24-1-13.58,8.78-8.59,21.4-16.53,44.43-28,11.08-5.5,25.93-13.32,33-17.37,56.16-32.23,56.84-32.48,89.11-33.56,12.6-.42,25.92-1.09,29.58-1.48,9.68-1,22.54-1.05,28.64-.06"/></svg>