<svg id="circuit-Australia" xmlns="http://www.w3.org/2000/svg" viewBox="0 0 260 260">
    <path fill="#ffffff" d="M73.4 12.1c-2.7 2.2-8 5.6-11.9 7.6-15.1 7.7-28.8 18.2-32.2 24.6-2 3.9-1.8 9 .6 22.1 1.2 5.9 1.8 11.2 1.5 11.7-.3.5-3.1 1.6-6.2 2.5C13.7 83.9 11.6 86.4 15 93c5.6 11 26.1 31.9 45.1 46.1 6.1 4.6 11.7 9.6 12.6 11.2 1.1 2.3 1.3 4.7.8 10.6-.6 7.4-.6 7.7 2.2 10.2 1.5 1.4 16.1 12.7 32.3 25 16.2 12.4 35.8 27.3 43.5 33.2 8.2 6.2 15.4 10.9 17.3 11.3 5 1 8.9-1.2 13.4-7.8 2.2-3.3 4.1-5.8 4.3-5.6.2.2 4 5 8.5 10.8 12.9 16.6 14.4 16.8 35.4 5 10.6-5.9 15-9 15.7-10.7.8-2.1-.5-6-7.8-23.1-11.7-27.4-13.2-29.5-31.8-41.7-8-5.3-15.8-10-17.3-10.6-1.6-.6-6.5-.8-12.2-.4l-9.5.6-6.2-3.7c-15.8-9.5-25.8-20.5-29.5-32.7-1.9-6.3-2-8.6-1.5-22.7.5-15.7.5-15.8 4.1-22.5 4.8-9.1 4.8-13.3-.5-29.5-2.3-6.9-4.6-13.4-5.1-14.5-2.5-4.7-8-10.3-12.9-12.9-4.5-2.5-6.8-3-15.9-3.6-9.8-.5-11.1-.9-15.7-3.8C81.6 9.4 79.1 8 78.8 8c-.3 0-2.8 1.8-5.4 4.1zm14.5 8.7c1.9.7 6.8 1.2 11 1.2 9.7 0 16.6 3 21 9 3.5 4.9 11.1 26.9 11.1 32.2 0 2.3-1.4 6.3-3.6 10.6l-3.7 7-.5 15.8c-.3 10.2 0 17.9.7 21.5 1.5 7.3 5.9 16.2 11 22.6 4.9 6 19.1 17.1 26.9 21 5 2.4 5.8 2.5 15 1.9l9.8-.7 13.4 8.7c15.3 9.8 18.2 12.2 21.6 18.1 3.7 6.2 17.5 38.6 17 39.9-.2.6-5.8 4.1-12.5 7.8-16.3 9.1-15.7 9.3-27.4-5.9-8-10.4-9.7-12-12.4-12.3-2.9-.3-3.5.2-8.3 7.2-3.2 4.9-5.7 7.6-6.9 7.6-1 0-21.8-15.2-46.2-33.9l-44.4-33.8.3-7.5c.6-11.1-1.1-13.7-15.5-24.5-17.6-13.2-35.3-30.7-42.7-42.4L21 89.3l7.2-2.4c4.9-1.6 7.8-3.2 9.1-5.1 2-2.7 2-2.7-.3-16.5-1.3-7.8-2-15-1.7-16.5 1.4-5.3 13-14.4 28.2-22.1 3.9-1.9 9-5.1 11.4-7 4.4-3.5 4.5-3.5 7-1.8 1.4 1 4.1 2.3 6 2.9z" />
</svg>