<svg xmlns="http://www.w3.org/2000/svg" viewBox="0 0 304.95 156.13"><title>circuit-Italy</title><path fill="#ffffff" d="M27.82,2.38C-3.38,8.55-5.13,11.62,6.91,39c3.85,8.76,7.45,17.42,8,19.26a17.38,17.38,0,0,0,4.25,6.42c1.78,1.7,3.25,3.39,3.25,3.75.06,5.73,8.72,50.48,10.83,55.94,6,15.46,17.89,26.54,32.58,30.25,9.31,2.36,27.42,1.93,35.52-.84,6.38-2.19,6.89-2.19,11-.06,7.88,4.11,154.05,1.47,170.1-3.07,17.82-5,27.75-21.86,19.72-33.44-4.67-6.74-1.89-6.38-54.31-7-90.66-1.15-81.65-.83-84.31-3-5.6-4.46-8.72-5.56-15.82-5.61l-6.8,0L136,97c-2.68-2.51-15.85-14.85-29.28-27.41-27-25.26-27.52-25.87-43.88-49.84C47.54-2.73,49.29-1.86,27.82,2.38M46.36,13.44c1.33,1.72,6.48,9.13,11.45,16.46,13.44,19.83,15,21.54,47,51.52,35.64,33.39,32.2,30.8,40.11,30.21,6.69-.51,6.07-.72,14.2,4.94l3.59,2.5,63,.65c34.64.36,63.82.84,64.84,1.06,5.55,1.19,5.52,8.64-.06,14.18-8.93,8.86-18,9.75-103.1,10.14l-66.29.3-3.2-2.54c-4.08-3.25-6.6-3.24-15.51.07C89,147.9,69,147.2,59.15,141.41c-13.33-7.81-17.37-16.94-23.38-52.87-4.69-28-5.05-29.31-8.44-31.31A9.35,9.35,0,0,1,24,53.28c-.55-1.4-4-9.24-7.6-17.42C7.45,15.75,7.1,16.59,26,12.84c16.46-3.26,17.35-3.24,20.33.6"/></svg>