<svg xmlns="http://www.w3.org/2000/svg" viewBox="0 0 338.55 115.07"><title>circuit-Japan</title><path fill="#ffffff" d="M111.43.75c-5.59,2.35-9,8.94-10.84,21.2C93.94,65.49,81.52,72.36,54.91,47.19,42.07,35.05,39.68,33.64,32,33.74,9.47,34-8.62,63.51,4.34,78.87c8.43,10,41,14.28,109,14.32,21.6,0,19.88-.6,22.68,8.09,4.31,13.36,16.1,17.37,30.75,10.46,11.86-5.6,13.73-8.34,18.37-26.91,7.65-30.62,13.65-39.06,27.76-39.11l5.17,0,.53,3.12c2.82,16.82,15.48,24.73,31.71,19.8,6.25-1.89,6.75-1.72,9.17,3.12,5.36,10.7,8.21,12.48,18.83,11.73,8.92-.63,10-.12,24.21,11,17.26,13.61,26.09,13.56,32.8-.17,7.48-15.28,2.34-26.48-17.24-37.55-5.74-3.25-24.4-15.23-41.44-26.62C227.91-2.37,226.5-2.91,215.07,6.54c-3.77,3.12-4.36,3.33-9.45,3.34C190.33,9.93,180.11,22,163.89,59,156.65,75.47,153.17,79.56,145,81.2l-2.69.54-4.53-9.48c-8.46-17.69-8.39-17.35-8.41-41.15,0-19.94-.1-21-1.88-24.35-2.8-5.29-10.67-8.24-16-6m6.12,13.91c2,4,2.23,7.86,1,18.53C117,46.24,117.61,50.63,123,64.77s5.52,14.8,3.31,16c-4.68,2.51-76.87.87-95.77-2.18C8.93,75.08,4.81,64.26,19.84,50.35c9.91-9.17,13.94-8.57,27.6,4.15,15.18,14.13,20.55,17,32.05,17,17.24,0,24.26-9.12,30.27-39.59,4.16-21.05,5-22.84,7.79-17.26M238.1,18.07c4.81,2.59,23.44,14.46,41.4,26.38S315.09,68,318.67,70.3c7.63,4.9,9.28,7.91,8.23,14.94-1.43,9.52-6.23,10.39-15.78,2.87C295.37,75.71,288.33,72.36,278,72.36c-5.39,0-6.37-.86-11.21-9.92-4.21-7.9-8.74-9-20.62-4.95s-13.39,3.08-16.52-9.74c-3.36-13.73-10-17-25.27-12.31C189.52,40,184,46.8,178.9,67c-6.77,26.7-10.11,32.74-19.55,35.32-6.84,1.87-10.68,1.11-12.53-2.47-2.25-4.36-1.68-5.45,4.62-8.75,10.83-5.7,17.24-14.2,26.18-34.74,11.82-27.15,19-35.8,29.13-35,4.93.37,5.27.27,10.1-3.16,9.71-6.9,8.56-6.9,21.25-.07"/></svg>